<?xml version="1.0" encoding="UTF-8" standalone="no"?>
<!-- Created with Inkscape (http://www.inkscape.org/) -->

<svg
   version="1.1"
   id="svg1968"
   xml:space="preserve"
   width="682.66669"
   height="682.66669"
   viewBox="0 0 682.66669 682.66669"
   xmlns="http://www.w3.org/2000/svg"
   xmlns:svg="http://www.w3.org/2000/svg"><defs
     id="defs1972"><clipPath
       clipPathUnits="userSpaceOnUse"
       id="clipPath1982"><path
         d="M 0,512 H 512 V 0 H 0 Z"
         id="path1980" /></clipPath></defs><g
     id="g1974"
     transform="matrix(1.3333333,0,0,-1.3333333,0,682.66667)"><g
       id="g1976"><g
         id="g1978"
         clip-path="url(#clipPath1982)"><g
           id="g1984"
           transform="translate(275.5,7.5)"><path
             d="m 0,0 h -248 c -11.046,0 -20,8.954 -20,20 0,11.046 8.954,20 20,20 H 0 C 11.046,40 20,31.046 20,20 20,8.954 11.046,0 0,0"
             style="fill:#964f09;fill-opacity:1;fill-rule:nonzero;stroke:none"
             id="path1986" /></g><g
           id="g1988"
           transform="translate(275.5,47.5)"><path
             d="m 0,0 h -40 c 11.046,0 20,-8.954 20,-20 0,-11.046 -8.954,-20 -20,-20 H 0 c 11.046,0 20,8.954 20,20 C 20,-8.954 11.046,0 0,0"
             style="fill:#804102;fill-opacity:1;fill-rule:nonzero;stroke:none"
             id="path1990" /></g><g
           id="g1992"
           transform="translate(245.5957,47.5)"><path
             d="m 0,0 h -188.191 c -11.046,0 -20,8.954 -20,20 0,11.046 8.954,20 20,20 H 0 C 11.046,40 20,31.046 20,20 20,8.954 11.046,0 0,0"
             style="fill:#e68d35;fill-opacity:1;fill-rule:nonzero;stroke:none"
             id="path1994" /></g><g
           id="g1996"
           transform="translate(245.5957,87.5)"><path
             d="m 0,0 h -40 c 11.046,0 20,-8.954 20,-20 0,-11.046 -8.954,-20 -20,-20 H 0 c 11.046,0 20,8.954 20,20 C 20,-8.954 11.046,0 0,0"
             style="fill:#d47619;fill-opacity:1;fill-rule:nonzero;stroke:none"
             id="path1998" /></g><g
           id="g2000"
           transform="translate(497.2993,149.6123)"><path
             d="m 0,0 v 0 c 9.601,9.601 9.601,25.167 0,34.768 l -215.788,215.788 c -9.601,9.601 -25.167,9.601 -34.768,0 -9.601,-9.601 -9.601,-25.167 0,-34.768 L -34.768,0 C -25.167,-9.601 -9.601,-9.601 0,0"
             style="fill:#e68d35;fill-opacity:1;fill-rule:nonzero;stroke:none"
             id="path2002" /></g><g
           id="g2004"
           transform="translate(377.9722,394.0903)"><path
             d="m 0,0 -125.151,-125.151 -73.182,73.182 125.151,125.151 z"
             style="fill:#e68d35;fill-opacity:1;fill-rule:nonzero;stroke:none"
             id="path2006" /></g><g
           id="g2008"
           transform="translate(304.79,467.272)"><path
             d="m 0,0 -20,-20 36.778,-36.778 c 9.06,-9.059 9.06,-23.748 0,-32.807 l -88.747,-88.748 20,-20 125.151,125.151 z"
             style="fill:#d47619;fill-opacity:1;fill-rule:nonzero;stroke:none"
             id="path2010" /></g><g
           id="g2012"
           transform="translate(259.4014,236.9834)"><path
             d="m 0,0 v 0 c 7.029,7.029 7.029,18.426 0,25.455 l -86.263,86.263 c -7.029,7.029 -18.426,7.029 -25.455,0 -7.029,-7.029 -7.029,-18.426 0,-25.454 L -25.455,0 C -18.425,-7.029 -7.029,-7.029 0,0"
             style="fill:#964f09;fill-opacity:1;fill-rule:nonzero;stroke:none"
             id="path2014" /></g><g
           id="g2016"
           transform="translate(409.9282,387.5103)"><path
             d="m 0,0 v 0 c 7.029,7.029 7.029,18.425 0,25.455 l -86.264,86.263 c -7.028,7.029 -18.425,7.029 -25.454,0 -7.029,-7.029 -7.029,-18.426 0,-25.455 L -25.455,0 C -18.426,-7.029 -7.029,-7.029 0,0"
             style="fill:#964f09;fill-opacity:1;fill-rule:nonzero;stroke:none"
             id="path2018" /></g><g
           id="g2020"
           transform="translate(279.2847,295.3433)"><path
             d="m 0,0 5.96,-5.96 c 10.767,-10.767 28.223,-10.767 38.989,0 l 33.295,33.294 c 10.766,10.767 10.766,28.223 0,38.99 l -5.96,5.96 z"
             style="fill:#964f09;fill-opacity:1;fill-rule:nonzero;stroke:none"
             id="path2022" /></g><g
           id="g2024"
           transform="translate(275.5,15)"><path
             d="m 0,0 h -248 c -6.893,0 -12.5,5.607 -12.5,12.5 0,6.893 5.607,12.5 12.5,12.5 h 46.182 c 9.697,0 9.697,15 0,15 h -16.278 c -6.892,0 -12.5,5.607 -12.5,12.5 0,6.893 5.608,12.5 12.5,12.5 h 188.192 c 6.892,0 12.5,-5.607 12.5,-12.5 0,-6.893 -5.608,-12.5 -12.5,-12.5 h -131.927 c -9.697,0 -9.697,-15 0,-15 H 0 C 6.893,25 12.5,19.393 12.5,12.5 12.5,5.607 6.893,0 0,0 m 0,40 h -5.422 c 1.924,3.753 3.018,8 3.018,12.5 0,15.164 -12.337,27.5 -27.5,27.5 h -188.192 c -15.163,0 -27.5,-12.336 -27.5,-27.5 0,-4.5 1.094,-8.747 3.018,-12.5 H -248 c -15.164,0 -27.5,-12.336 -27.5,-27.5 0,-15.164 12.336,-27.5 27.5,-27.5 H 0 C 15.164,-15 27.5,-2.664 27.5,12.5 27.5,27.664 15.164,40 0,40"
             style="fill:#060606;fill-opacity:1;fill-rule:nonzero;stroke:none"
             id="path2026" /></g><g
           id="g2028"
           transform="translate(491.9961,154.9155)"><path
             d="m 0,0 c -6.591,-6.591 -17.57,-6.591 -24.161,0 l -133.732,133.731 24.162,24.162 L 0,24.161 C 6.591,17.57 6.591,6.591 0,0 m -173.065,139.771 c -8.123,-8.123 -21.191,-7.239 -29.04,0.657 l 61.677,61.677 c 7.871,-7.894 8.87,-20.826 0.657,-29.04 z m -66.07,-15.101 -62.575,62.576 114.465,114.464 62.575,-62.575 z m 1.237,-37.299 c -4.094,-4.095 -10.754,-4.094 -14.848,0 l -86.263,86.264 c -9.584,9.582 5.274,24.419 14.848,14.848 l 86.263,-86.264 c 4.051,-4.051 4.05,-10.797 0,-14.848 M 10.606,34.768 -123.872,169.246 c 8.356,13.963 5.761,32.285 -5.979,43.495 l 15.788,15.788 c 22.561,-24.838 61.634,10.487 37.298,34.824 l -50.884,50.884 c -6.856,6.856 -17.464,-3.75 -10.606,-10.607 l 50.883,-50.884 c 9.704,-9.703 -5.344,-24.351 -14.847,-14.848 l -86.263,86.263 c -9.704,9.703 5.344,24.352 14.847,14.848 l 8.083,-8.082 c 6.856,-6.857 17.464,3.75 10.606,10.606 l -8.082,8.083 c -24.139,24.138 -59.846,-14.537 -34.824,-37.299 L -312.317,197.852 c -22.562,24.803 -61.661,-10.464 -37.299,-34.824 l 86.263,-86.264 c 24.109,-24.106 59.891,14.531 34.824,37.299 l 15.788,15.788 c 11.209,-11.747 29.552,-14.377 43.506,-5.989 L -34.768,-10.606 C -5.493,-39.884 39.884,5.493 10.606,34.768"
             style="fill:#060606;fill-opacity:1;fill-rule:nonzero;stroke:none"
             id="path2030" /></g><g
           id="g2032"
           transform="translate(53.5356,155.1514)"><path
             d="m 0,0 43.497,-29.43 c 7.795,-5.273 16.415,7.004 8.406,12.424 L 8.406,12.424 C 0.374,17.857 -8.032,5.435 0,0"
             style="fill:#060606;fill-opacity:1;fill-rule:nonzero;stroke:none"
             id="path2034" /></g><g
           id="g2036"
           transform="translate(203.8105,124.4321)"><path
             d="m 0,0 c 1.446,0 2.908,0.418 4.196,1.289 l 43.497,29.43 c 8.032,5.435 -0.375,17.859 -8.406,12.424 L -4.21,13.713 C -10.414,9.516 -6.954,0 0,0"
             style="fill:#060606;fill-opacity:1;fill-rule:nonzero;stroke:none"
             id="path2038" /></g><g
           id="g2040"
           transform="translate(160.0195,164.4956)"><path
             d="m 0,0 v 50.004 c 0,9.697 -15,9.697 -15,0 V 0 c 0,-9.697 15,-9.697 15,0"
             style="fill:#060606;fill-opacity:1;fill-rule:nonzero;stroke:none"
             id="path2042" /></g></g></g></g></svg>
