<svg version="1.1" id="Capa_1" xmlns="http://www.w3.org/2000/svg" xmlns:xlink="http://www.w3.org/1999/xlink" x="0px" y="0px" viewBox="0 0 512 512" style="enable-background:new 0 0 512 512;" xml:space="preserve">
<g>
	<path style="fill:#EFE2DD;" d="M488.477,102h-69.884v279.851c0,2.206-1.794,4-4,4H186.755V436h68.567c7.72,0,14,6.28,14,14v18.354&#10;&#9;&#9;h13.433c4.962,0,9,4.037,9,9v3.997h196.721c2.761,0,5-2.239,5-5V107C493.477,104.239,491.238,102,488.477,102z"/>
	<path style="fill:#E1D3CE;" d="M488.477,102H457c2.761,0,5,2.239,5,5v369.351c0,2.761-2.239,5-5,5h31.477c2.761,0,5-2.239,5-5V107&#10;&#9;&#9;C493.477,104.239,491.238,102,488.477,102z"/>
	
		<line style="fill:none;stroke:#000000;stroke-width:15;stroke-linecap:round;stroke-linejoin:round;stroke-miterlimit:10;" x1="292.755" y1="481.351" x2="401" y2="481.351"/>
	
		<line style="fill:none;stroke:#000000;stroke-width:15;stroke-linecap:round;stroke-linejoin:round;stroke-miterlimit:10;" x1="186.755" y1="386.851" x2="186.755" y2="435"/>
	<path style="fill:none;stroke:#000000;stroke-width:15;stroke-linecap:round;stroke-linejoin:round;stroke-miterlimit:10;" d="&#10;&#9;&#9;M436,481.351h52.477c2.761,0,5-2.239,5-5V107c0-2.761-2.239-5-5-5h-68.884"/>
	<g>
		<path style="fill:#D8AA5E;" d="M270.323,467.354V450c0-8.284-6.716-15-15-15h-91.135c-8.284,0-15,6.716-15,15v17.354H270.323z"/>
		<path style="fill:#C99C56;" d="M255.323,435h-31.188c8.284,0,15,6.716,15,15v17.354h31.188V450&#10;&#9;&#9;&#9;C270.323,441.716,263.607,435,255.323,435z"/>
		<path style="fill:none;stroke:#000000;stroke-width:15;stroke-linecap:round;stroke-linejoin:round;stroke-miterlimit:10;" d="&#10;&#9;&#9;&#9;M270.323,468.354V450c0-8.284-6.716-15-15-15h-91.135c-8.284,0-15,6.716-15,15v18.354H270.323z"/>
		<path style="fill:#C96E59;" d="M282.755,467.354H126.317l-1,3.715V494.5c0,4.871-3.892,8.84-8.727,8.986v1.014h166.165&#10;&#9;&#9;&#9;c5.523,0,10-4.477,10-10v-17.146C292.755,471.831,288.278,467.354,282.755,467.354z"/>
		<path style="fill:#BB5D4C;" d="M282.755,467.354h-31.59c5.523,0,10,4.477,10,10V494.5c0,5.523-4.477,10-10,10h31.59&#10;&#9;&#9;&#9;c5.523,0,10-4.477,10-10v-17.146C292.755,471.831,288.278,467.354,282.755,467.354z"/>
		<path style="fill:none;stroke:#000000;stroke-width:15;stroke-linecap:round;stroke-linejoin:round;stroke-miterlimit:10;" d="&#10;&#9;&#9;&#9;M282.755,467.354H126.317V494.5c0,5.431-4.332,9.84-9.727,9.986v0.014h166.165c5.523,0,10-4.477,10-10v-17.146&#10;&#9;&#9;&#9;C292.755,471.831,288.278,467.354,282.755,467.354z"/>
	</g>
	<g>
		<g>
			<g>
				
					<line style="fill:none;stroke:#000000;stroke-width:15;stroke-linecap:round;stroke-linejoin:round;stroke-miterlimit:10;" x1="419.593" y1="339.775" x2="455.425" y2="339.775"/>
				
					<line style="fill:none;stroke:#000000;stroke-width:15;stroke-linecap:round;stroke-linejoin:round;stroke-miterlimit:10;" x1="419.593" y1="376.909" x2="455.425" y2="376.909"/>
				
					<line style="fill:none;stroke:#000000;stroke-width:15;stroke-linecap:round;stroke-linejoin:round;stroke-miterlimit:10;" x1="357.755" y1="414.044" x2="455.425" y2="414.044"/>
				
					<line style="fill:none;stroke:#000000;stroke-width:15;stroke-linecap:round;stroke-linejoin:round;stroke-miterlimit:10;" x1="287.944" y1="414.044" x2="333.539" y2="414.044"/>
			</g>
		</g>
		<g>
			<g>
				
					<line style="fill:none;stroke:#000000;stroke-width:15;stroke-linecap:round;stroke-linejoin:round;stroke-miterlimit:10;" x1="419.593" y1="179" x2="455.425" y2="179"/>
				
					<line style="fill:none;stroke:#000000;stroke-width:15;stroke-linecap:round;stroke-linejoin:round;stroke-miterlimit:10;" x1="419.593" y1="216.134" x2="455.425" y2="216.134"/>
				
					<line style="fill:none;stroke:#000000;stroke-width:15;stroke-linecap:round;stroke-linejoin:round;stroke-miterlimit:10;" x1="419.593" y1="253.269" x2="455.425" y2="253.269"/>
			</g>
			
				<line style="fill:none;stroke:#000000;stroke-width:15;stroke-linecap:round;stroke-linejoin:round;stroke-miterlimit:10;" x1="419.593" y1="290.403" x2="455.425" y2="290.403"/>
		</g>
	</g>
	<path style="fill:#F9F3F1;" d="M414.593,7.5H117.872c-2.761,0-5,2.239-5,5v188.881h25.309c5.076,0,9.205,4.129,9.205,9.205v64.294&#10;&#9;&#9;c0,5.076-4.129,9.205-9.205,9.205h-4.731v23.936c0,4.041-3.161,7.413-7.197,7.675l-0.935,0.061v71.095h289.276c2.761,0,5-2.239,5-5&#10;&#9;&#9;V12.5C419.593,9.739,417.355,7.5,414.593,7.5z"/>
	<path style="fill:#F3EAE6;" d="M414.593,7.5H383c2.761,0,5,2.239,5,5v369.351c0,2.761-2.239,5-5,5h31.593c2.761,0,5-2.239,5-5V12.5&#10;&#9;&#9;C419.593,9.739,417.355,7.5,414.593,7.5z"/>
	<path style="fill:none;stroke:#000000;stroke-width:15;stroke-linecap:round;stroke-linejoin:round;stroke-miterlimit:10;" d="&#10;&#9;&#9;M126.317,386.851h288.276c2.761,0,5-2.239,5-5V12.5c0-2.761-2.239-5-5-5H117.872c-2.761,0-5,2.239-5,5V72"/>
	
		<line style="fill:none;stroke:#000000;stroke-width:15;stroke-linecap:round;stroke-linejoin:round;stroke-miterlimit:10;" x1="112.872" y1="107" x2="112.872" y2="200.381"/>
	<g>
		
			<line style="fill:none;stroke:#000000;stroke-width:15;stroke-linecap:round;stroke-linejoin:round;stroke-miterlimit:10;" x1="204.516" y1="221.861" x2="367.764" y2="221.861"/>
		
			<line style="fill:none;stroke:#000000;stroke-width:15;stroke-linecap:round;stroke-linejoin:round;stroke-miterlimit:10;" x1="204.516" y1="258.996" x2="367.764" y2="258.996"/>
		
			<line style="fill:none;stroke:#000000;stroke-width:15;stroke-linecap:round;stroke-linejoin:round;stroke-miterlimit:10;" x1="287.944" y1="296.13" x2="367.764" y2="296.13"/>
		
			<line style="fill:none;stroke:#000000;stroke-width:15;stroke-linecap:round;stroke-linejoin:round;stroke-miterlimit:10;" x1="287.944" y1="333.264" x2="367.764" y2="333.264"/>
		<path style="fill:#528FD8;" d="M227.188,333.264h27.134c2.761,0,5-2.239,5-5V301.13c0-2.761-2.239-5-5-5h-27.134&#10;&#9;&#9;&#9;c-2.761,0-5,2.239-5,5v27.134C222.188,331.026,224.427,333.264,227.188,333.264z"/>
		<path style="fill:#0573CE;" d="M254.322,296.13H236c2.761,0,5,2.239,5,5v27.134c0,2.761-2.239,5-5,5h18.322c2.761,0,5-2.239,5-5&#10;&#9;&#9;&#9;V301.13C259.322,298.368,257.084,296.13,254.322,296.13z"/>
		<path style="fill:none;stroke:#000000;stroke-width:15;stroke-linecap:round;stroke-linejoin:round;stroke-miterlimit:10;" d="&#10;&#9;&#9;&#9;M227.188,333.264h27.134c2.761,0,5-2.239,5-5V301.13c0-2.761-2.239-5-5-5h-27.134c-2.761,0-5,2.239-5,5v27.134&#10;&#9;&#9;&#9;C222.188,331.026,224.427,333.264,227.188,333.264z"/>
		<g>
			<g>
				
					<line style="fill:none;stroke:#000000;stroke-width:15;stroke-linecap:round;stroke-linejoin:round;stroke-miterlimit:10;" x1="164.7" y1="61.086" x2="291.755" y2="61.086"/>
				
					<line style="fill:none;stroke:#000000;stroke-width:15;stroke-linecap:round;stroke-linejoin:round;stroke-miterlimit:10;" x1="164.7" y1="98.221" x2="291.755" y2="98.221"/>
				
					<line style="fill:none;stroke:#000000;stroke-width:15;stroke-linecap:round;stroke-linejoin:round;stroke-miterlimit:10;" x1="317.755" y1="135.355" x2="367.764" y2="135.355"/>
			</g>
			
				<line style="fill:none;stroke:#000000;stroke-width:15;stroke-linecap:round;stroke-linejoin:round;stroke-miterlimit:10;" x1="164.7" y1="172.489" x2="204.516" y2="172.489"/>
		</g>
	</g>
	<g>
		<g>
			<g>
				<g>
					<path style="fill:#A44F3E;" d="M125.748,315.722H97.29c-0.192,0-0.38-0.015-0.569-0.029V494.5c0,5.523,4.477,10,10,10h9.595&#10;&#9;&#9;&#9;&#9;&#9;&#9;c5.523,0,10-4.477,10-10V315.693C126.129,315.707,125.94,315.722,125.748,315.722z"/>
					<g>
						<path style="fill:#883F2E;" d="M125.748,315.722H112V494.5c0,4.708-3.258,8.646-7.639,9.708&#10;&#9;&#9;&#9;&#9;&#9;&#9;&#9;c0.758,0.184,1.546,0.292,2.361,0.292h9.595c5.523,0,10-4.477,10-10V315.693C126.129,315.707,125.94,315.722,125.748,315.722z&#10;&#9;&#9;&#9;&#9;&#9;&#9;&#9;"/>
					</g>
					<path style="fill:none;stroke:#000000;stroke-width:15;stroke-linecap:round;stroke-linejoin:round;stroke-miterlimit:10;" d="&#10;&#9;&#9;&#9;&#9;&#9;&#9;M96.722,424v70.5c0,5.523,4.477,10,10,10h9.595c5.523,0,10-4.477,10-10V316.693c-0.189,0.012-0.377,0.029-0.569,0.029H97.29&#10;&#9;&#9;&#9;&#9;&#9;&#9;c-0.192,0-0.38-0.016-0.569-0.029V389"/>
					<path style="fill:#C96E59;" d="M88.589,284.065v23.956c0,4.805,3.896,8.701,8.701,8.701h28.458&#10;&#9;&#9;&#9;&#9;&#9;&#9;c4.805,0,8.701-3.896,8.701-8.701v-23.956H88.589z"/>
					<path style="fill:#BB5D4C;" d="M113.86,284.065v23.956c0,4.805-3.896,8.701-8.701,8.701h20.589&#10;&#9;&#9;&#9;&#9;&#9;&#9;c4.805,0,8.701-3.896,8.701-8.701v-23.956H113.86z"/>
					<path style="fill:none;stroke:#000000;stroke-width:15;stroke-linecap:round;stroke-linejoin:round;stroke-miterlimit:10;" d="&#10;&#9;&#9;&#9;&#9;&#9;&#9;M88.589,285.085v22.936c0,4.805,3.896,8.701,8.701,8.701h28.458c4.805,0,8.701-3.896,8.701-8.701v-22.936H88.589z"/>
					<g>
						<path style="fill:#A44F3E;" d="M188.187,200.381L188.187,200.381c-4.982,0-9.438,2.232-12.431,5.75&#10;&#9;&#9;&#9;&#9;&#9;&#9;&#9;c-4.171,4.904-10.443,7.517-16.881,7.517h-11.51v58.17h11.51c6.438,0,12.71,2.613,16.881,7.517&#10;&#9;&#9;&#9;&#9;&#9;&#9;&#9;c2.992,3.518,7.449,5.75,12.43,5.75h0c9.018,0,16.328-7.31,16.328-16.329v-52.047&#10;&#9;&#9;&#9;&#9;&#9;&#9;&#9;C204.516,207.691,197.205,200.381,188.187,200.381z"/>
						<path style="fill:#C96E59;" d="M158.876,213.648h-11.51v58.17h11.51c6.438,0,12.71,2.613,16.881,7.517v-73.204&#10;&#9;&#9;&#9;&#9;&#9;&#9;&#9;C171.585,211.035,165.314,213.648,158.876,213.648z"/>
						
							<path style="fill:none;stroke:#000000;stroke-width:15;stroke-linecap:round;stroke-linejoin:round;stroke-miterlimit:10;" d="&#10;&#9;&#9;&#9;&#9;&#9;&#9;&#9;M188.187,200.381L188.187,200.381c-4.982,0-9.438,2.232-12.431,5.75c-4.171,4.904-10.443,7.517-16.881,7.517h-10.49v58.17&#10;&#9;&#9;&#9;&#9;&#9;&#9;&#9;h10.49c6.438,0,12.71,2.613,16.881,7.517c2.992,3.518,7.449,5.75,12.43,5.75h0c9.018,0,16.328-7.31,16.328-16.329v-52.047&#10;&#9;&#9;&#9;&#9;&#9;&#9;&#9;C204.516,207.691,197.205,200.381,188.187,200.381z"/>
						<path style="fill:#A44F3E;" d="M75.673,213.648h-11.51c-6.438,0-12.71-2.613-16.881-7.517c-2.992-3.518-7.449-5.75-12.43-5.75&#10;&#9;&#9;&#9;&#9;&#9;&#9;&#9;h0c-9.018,0-16.329,7.311-16.329,16.329v52.047c0,9.018,7.311,16.329,16.329,16.329h0c4.982,0,9.438-2.232,12.43-5.75&#10;&#9;&#9;&#9;&#9;&#9;&#9;&#9;c4.171-4.904,10.443-7.517,16.881-7.517h11.51V213.648z"/>
						<path style="fill:#C96E59;" d="M75.673,213.648h-11.51c-6.438,0-12.71-2.613-16.881-7.517v73.204&#10;&#9;&#9;&#9;&#9;&#9;&#9;&#9;c4.171-4.904,10.443-7.517,16.881-7.517h11.51V213.648z"/>
						
							<path style="fill:none;stroke:#000000;stroke-width:15;stroke-linecap:round;stroke-linejoin:round;stroke-miterlimit:10;" d="&#10;&#9;&#9;&#9;&#9;&#9;&#9;&#9;M74.653,213.648h-10.49c-6.438,0-12.71-2.613-16.881-7.517c-2.992-3.518-7.449-5.75-12.43-5.75h0&#10;&#9;&#9;&#9;&#9;&#9;&#9;&#9;c-9.018,0-16.329,7.311-16.329,16.329v52.047c0,9.018,7.311,16.329,16.329,16.329h0c4.982,0,9.438-2.232,12.43-5.75&#10;&#9;&#9;&#9;&#9;&#9;&#9;&#9;c4.171-4.904,10.443-7.517,16.881-7.517h10.49V213.648z"/>
					</g>
					<g>
						
							<line style="fill:none;stroke:#000000;stroke-width:15;stroke-linecap:round;stroke-linejoin:round;stroke-miterlimit:10;" x1="175.757" y1="279.335" x2="175.757" y2="206.131"/>
						
							<line style="fill:none;stroke:#000000;stroke-width:15;stroke-linecap:round;stroke-linejoin:round;stroke-miterlimit:10;" x1="47.282" y1="206.131" x2="47.282" y2="279.335"/>
					</g>
				</g>
			</g>
		</g>
		<path style="fill:#D8AA5E;" d="M74.653,274.88v-64.294c0-5.636,4.569-10.205,10.205-10.205h53.323&#10;&#9;&#9;&#9;c5.636,0,10.205,4.569,10.205,10.205v64.294c0,5.636-4.569,10.205-10.205,10.205H84.858&#10;&#9;&#9;&#9;C79.222,285.085,74.653,280.516,74.653,274.88z"/>
		<path style="fill:#C99C56;" d="M138.181,200.381h-31.386c5.636,0,10.205,4.569,10.205,10.205v64.294&#10;&#9;&#9;&#9;c0,5.636-4.569,10.205-10.205,10.205h31.386c5.636,0,10.205-4.569,10.205-10.205v-64.294&#10;&#9;&#9;&#9;C148.386,204.95,143.817,200.381,138.181,200.381z"/>
		<path style="fill:none;stroke:#000000;stroke-width:15;stroke-linecap:round;stroke-linejoin:round;stroke-miterlimit:10;" d="&#10;&#9;&#9;&#9;M74.653,274.88v-64.294c0-5.636,4.569-10.205,10.205-10.205h53.323c5.636,0,10.205,4.569,10.205,10.205v64.294&#10;&#9;&#9;&#9;c0,5.636-4.569,10.205-10.205,10.205H84.858C79.222,285.085,74.653,280.516,74.653,274.88z"/>
	</g>
	<path style="fill:#E9B665;" d="M321.121,52v21.519c0,8.336,3.469,16.297,9.575,21.973l13.154,12.228&#10;&#9;&#9;c1.919,1.784,4.889,1.784,6.808,0l13.154-12.228c6.106-5.676,9.575-13.636,9.575-21.973V52c0-2.761-2.239-5-5-5h-42.267&#10;&#9;&#9;C323.36,47,321.121,49.239,321.121,52z"/>
	<path style="fill:#D8AA5E;" d="M368.388,47H348c2.761,0,5,2.239,5,5v21.519c0,8.336-3.469,16.297-9.575,21.973l-6.365,5.917&#10;&#9;&#9;l6.79,6.312c1.919,1.784,4.89,1.784,6.808,0l13.154-12.228c6.106-5.676,9.575-13.636,9.575-21.973V52&#10;&#9;&#9;C373.388,49.239,371.149,47,368.388,47z"/>
	<path style="fill:none;stroke:#000000;stroke-width:15;stroke-linecap:round;stroke-linejoin:round;stroke-miterlimit:10;" d="&#10;&#9;&#9;M321.121,52v21.519c0,8.336,3.469,16.297,9.575,21.973l13.154,12.228c1.919,1.784,4.889,1.784,6.808,0l13.154-12.228&#10;&#9;&#9;c6.106-5.676,9.575-13.636,9.575-21.973V52c0-2.761-2.239-5-5-5h-42.267C323.36,47,321.121,49.239,321.121,52z"/>
	
		<line style="fill:none;stroke:#000000;stroke-width:15;stroke-linecap:round;stroke-linejoin:round;stroke-miterlimit:10;" x1="228.755" y1="172.489" x2="367.764" y2="172.489"/>
	
		<line style="fill:none;stroke:#000000;stroke-width:15;stroke-linecap:round;stroke-linejoin:round;stroke-miterlimit:10;" x1="164.7" y1="135.355" x2="291.755" y2="135.355"/>
</g>
<g>
</g>
<g>
</g>
<g>
</g>
<g>
</g>
<g>
</g>
<g>
</g>
<g>
</g>
<g>
</g>
<g>
</g>
<g>
</g>
<g>
</g>
<g>
</g>
<g>
</g>
<g>
</g>
<g>
</g>
</svg>